<?xml version="1.0" encoding="utf-8"?>
<!-- Generator: Adobe Illustrator 22.0.1, SVG Export Plug-In . SVG Version: 6.00 Build 0)  -->
<svg version="1.1" id="Capa_1" xmlns="http://www.w3.org/2000/svg" xmlns:xlink="http://www.w3.org/1999/xlink" x="0px" y="0px"
	 viewBox="0 0 419.2 419.2" style="enable-background:new 0 0 419.2 419.2;" xml:space="preserve">
<style type="text/css">
	.st0{fill:#FFFFFF;}
</style>
<g>
	<g>
		<g>
			<ellipse class="st0" cx="198.1" cy="155.2" rx="24.3" ry="24"/>
			<path class="st0" d="M397.5,243.6c-11.5-10.7-26-17.7-41.9-19.7V101.8c0-13-5.4-24.7-13.8-33.4c-8.8-8.7-20.6-13.7-33.8-13.7
				H112.3c-13.2,0-25,5.3-33.8,13.7c-8.8,8.7-13.8,20.4-13.8,33.4v153.9V270v31c0,13,5.4,24.7,13.8,33.4
				c8.8,8.7,20.6,13.7,33.8,13.7h189.3c12.5,10,28,16.4,45.2,16.4c19.9,0,37.8-8,50.6-20.7c12.8-12.7,20.9-30.4,20.9-50.1
				C418.5,274,410.4,256.3,397.5,243.6z M82.6,101.8c0-8,3.4-15.4,8.8-20.4c5.4-5.3,12.8-8.7,20.9-8.7h195.8
				c8.1,0,15.5,3.3,20.9,8.7c5.4,5.3,8.8,12.7,8.8,20.7v104.1l-50-49.4c-3.4-3.3-9.1-3.7-12.8,0l-75.3,74.8l-51-50.7
				c-3.4-3.3-9.1-3.7-12.8,0l-53.3,53.4V101.8z M112,330.4L112,330.4c-8.1,0-15.5-3.3-20.9-8.7c-5.1-5.3-8.4-12.7-8.4-20.7v-31
				v-10.3l59.7-59.4l51,50.4c3.4,3.3,9.1,3.3,12.8,0l75.3-74.8l49.3,49.1c-1,0.3-2,0.7-3,1c-1.4,0.3-2.7,0.7-4.4,1.3
				c-1.4,0.3-2.7,1-4.1,1.3c-1,0.3-1.7,0.7-2.7,1.3c-1.4,0.7-2.4,1-3.4,1.7c-1.7,1-3.4,2-5.1,3c-1,0.7-1.7,1-2.7,1.7
				c-0.7,0.3-1,0.7-1.7,1c-3,2-5.7,4.3-8.1,7c-12.8,12.7-20.9,30.4-20.9,50.1c0,5,0.7,9.7,1.7,14.7c0.3,1.3,0.7,2.3,1,3.7
				c1,3.3,2,6.7,3.4,10v0.3c1.4,2.7,2.7,5.7,4.4,8L112,330.4z M384.4,331.1c-9.8,9.7-23,15.4-37.8,15.4c-14.2,0-27.3-5.7-36.8-14.7
				c-1.4-1.3-2.7-3-4.1-4.3c-1-1-2-2.3-3-3.3c-1.4-1.7-2.4-3.7-3.4-5.7c-0.7-1.3-1.4-2.3-2-3.7c-0.7-1.7-1.4-3.7-1.7-5.7
				c-0.3-1.3-1-3-1.4-4.3c-0.7-3.3-1-7-1-10.7c0-14.7,6.1-27.7,15.5-37.4c9.5-9.7,23-15.4,37.8-15.4s28,6,37.8,15.4
				c9.8,9.7,15.5,22.7,15.5,37.4C399.9,308.4,393.8,321.4,384.4,331.1z"/>
			<path class="st0" d="M353,258c-0.7-0.7-1.7-1.3-3-2c-1-0.3-2-0.7-3-0.7c-0.3,0-0.3,0-0.3,0c-0.3,0-0.3,0-0.3,0c-1,0-2,0.3-3,0.7
				c-1,0.3-2,1-3,2l-20.9,20.7c-3.4,3.3-3.4,9,0,12.7c3.4,3.3,9.1,3.3,12.8,0l5.4-5.3v36.7c0,5,4.1,9,9.1,9c5.1,0,9.1-4,9.1-9V286
				l5.4,5.3c3.4,3.3,9.1,3.3,12.8,0c3.4-3.3,3.4-9,0-12.7L353,258z"/>
		</g>
	</g>
</g>
</svg>
